# xmcd CD database file
#
# Track frame offsets:
#	150
#	14586
#	30442
#	43422
#	62229
#	78202
#	92858
#	113639
#	130403
#	141119
#
# Disc length: 2127 seconds
#
# Revision: 0
# Processed by: cddbd v1.5.2PL0 Copyright (c) Steve Scherf et al.
# Submitted via: CDex 1.51
#
DISCID=86084d0a
DTITLE=Gary Bonnett - The Long Road Home
DYEAR=2009
DGENRE=Country
TTITLE0=$50 and A Flask of Crown
TTITLE1=San Angelo
TTITLE2=Hillbilly Way
TTITLE3=Without You
TTITLE4=Rock Cave
TTITLE5=Amy's Song
TTITLE6=One More Day
TTITLE7=West Virginians are Coming Home
TTITLE8=I'm A Christian
TTITLE9=San Saba River
EXTD=YEAR: 2009
EXTT0=
EXTT1=
EXTT2=
EXTT3=
EXTT4=
EXTT5=
EXTT6=
EXTT7=
EXTT8=
EXTT9=
PLAYORDER=
